<svg xmlns="http://www.w3.org/2000/svg" viewBox="0 0 238.89 32"><defs><style>.cls-1,.cls-2{fill:#fff;}.cls-2{opacity:0.65;}</style></defs><title>logo</title><g id="Layer_2" data-name="Layer 2"><g id="Layer_1-2" data-name="Layer 1"><path class="cls-1" d="M32,3.53a1,1,0,0,0-.82-1s-.08,0-.18,0h0c-2.68.18-10.16,1.11-15,6-4.86-4.86-12.34-5.79-15-6H1a.34.34,0,0,0-.19,0,1,1,0,0,0-.81,1s0,0,0,0H0V25.32a1,1,0,0,0,.79,1,.47.47,0,0,0,.21.07c2.54.16,9.39,1,14.24,5.25a1,1,0,0,0,1.51.07A24.29,24.29,0,0,1,31,26.33h0a1,1,0,0,0,1-1V3.57h0S32,3.55,32,3.53ZM30,24.37A26.62,26.62,0,0,0,17,29V23.5h0a.5.5,0,0,0-.5-.5,0,0,0,0,0,0,0h-1a0,0,0,0,0,0,0,.5.5,0,0,0-.5.5s0,0,0,.05v5.32A27.85,27.85,0,0,0,2,24.42V4.64C5,5,10.8,6.11,14.6,9.91l.42.42v5.12s0,0,0,.05a.5.5,0,0,0,.5.5h1a.5.5,0,0,0,.5-.5h0V10.33l.42-.42A17.3,17.3,0,0,1,24,6v6.57h0a.5.5,0,0,0,.5.5.48.48,0,0,0,.36-.17l0,0L26,11.76l1.2.68h0a.57.57,0,0,0,.28.11A.5.5,0,0,0,28,12v0h0V4.93c.74-.14,1.42-.23,2-.29Z"/><path class="cls-1" d="M21,.53h0s0,0,0,0A.49.49,0,0,0,20.69,0a.41.41,0,0,0-.19,0,.49.49,0,0,0-.31.13h0l-.05,0A13.43,13.43,0,0,0,16,6.39,13.56,13.56,0,0,0,11.91.22h0L11.83.14s0,0,0,0a.57.57,0,0,0-.13-.1.41.41,0,0,0-.19,0,.5.5,0,0,0-.5.5s0,0,0,0h0V2.16a23.24,23.24,0,0,1,5,5.05,22.25,22.25,0,0,1,5-5Z"/><path class="cls-1" d="M5.49.35A.5.5,0,0,0,5,.84V2.29a25.06,25.06,0,0,1,8.74,3.39A18.21,18.21,0,0,0,5.5.33S5.49.35,5.49.35Z"/><path class="cls-1" d="M27,.84a.49.49,0,0,0-.5-.49v0a18,18,0,0,0-8.16,5.35A24.72,24.72,0,0,1,27,2.29V.84Z"/><path class="cls-1" d="M44,2.37h2V6.84h4.49V2.37h2V13.49h-2V8.56H46v4.93H44Z"/><path class="cls-1" d="M55.16,5.14h2v5c0,1.38.4,1.89,1.3,1.89.73,0,1.22-.34,1.85-1.16V5.14h2v8.35H60.62l-.16-1.23h-.05a3.38,3.38,0,0,1-2.68,1.43c-1.79,0-2.57-1.21-2.57-3.31Z"/><path class="cls-1" d="M64.87,5.14h1.61l.14,1.12h.07a3.84,3.84,0,0,1,2.73-1.32c1.79,0,2.57,1.2,2.57,3.31v5.24H70v-5c0-1.38-.39-1.89-1.3-1.89a2.65,2.65,0,0,0-1.91,1v5.83H64.87Z"/><path class="cls-1" d="M74.85,6.69H73.66V5.23L75,5.14l.24-2.28h1.63V5.14h2.12V6.69H76.82v4c0,1,.37,1.46,1.17,1.46a2.46,2.46,0,0,0,.87-.19l.34,1.45a5.45,5.45,0,0,1-1.7.3c-1.94,0-2.65-1.22-2.65-3Z"/><path class="cls-1" d="M80.64,2.57a1.21,1.21,0,1,1,1.21,1.11A1.12,1.12,0,0,1,80.64,2.57Zm.22,2.57h2v8.35h-2Z"/><path class="cls-1" d="M85.49,5.14H87.1l.14,1.12h.07A3.84,3.84,0,0,1,90,4.94c1.79,0,2.57,1.2,2.57,3.31v5.24h-2v-5c0-1.38-.4-1.89-1.31-1.89a2.67,2.67,0,0,0-1.91,1v5.83h-2Z"/><path class="cls-1" d="M95.81,13.22v-.07a1.57,1.57,0,0,1-.75-1.4A2,2,0,0,1,96,10.21v-.07a2.8,2.8,0,0,1-1.09-2.21,3,3,0,0,1,3.3-3,3.71,3.71,0,0,1,1.22.2h3V6.59h-1.53A2.23,2.23,0,0,1,101.35,8c0,1.85-1.4,2.84-3.16,2.84a2.94,2.94,0,0,1-1.14-.23,1,1,0,0,0-.41.8c0,.48.34.77,1.36.77h1.48c2,0,3.06.61,3.06,2.06,0,1.64-1.74,2.94-4.46,2.94-2,0-3.46-.72-3.46-2.18A2.12,2.12,0,0,1,95.81,13.22Zm2.58,2.68c1.34,0,2.26-.63,2.26-1.34s-.53-.83-1.48-.83H98a4.69,4.69,0,0,1-1.14-.12,1.39,1.39,0,0,0-.64,1.1C96.25,15.46,97.06,15.9,98.39,15.9Zm1.24-8a1.47,1.47,0,1,0-2.91,0,1.47,1.47,0,1,0,2.91,0Z"/><path class="cls-1" d="M105.16,6.69H104V5.23l1.29-.09.24-2.28h1.63V5.14h2.12V6.69h-2.12v4c0,1,.37,1.46,1.17,1.46a2.46,2.46,0,0,0,.87-.19l.34,1.45a5.45,5.45,0,0,1-1.7.3c-1.94,0-2.65-1.22-2.65-3Z"/><path class="cls-1" d="M114.42,4.94a4,4,0,0,1,4,4.38,4,4,0,1,1-7.94,0A4,4,0,0,1,114.42,4.94Zm0,7.15c1.23,0,2-1.1,2-2.77s-.74-2.78-2-2.78-2,1.1-2,2.78S113.2,12.09,114.42,12.09Z"/><path class="cls-1" d="M120.51,5.14h1.61l.14,1.12h.07a3.84,3.84,0,0,1,2.73-1.32c1.79,0,2.57,1.2,2.57,3.31v5.24h-2v-5c0-1.38-.39-1.89-1.3-1.89a2.65,2.65,0,0,0-1.91,1v5.83h-1.95Z"/><path class="cls-1" d="M138.54,2.17a4.33,4.33,0,0,1,3.16,1.41L140.62,4.8a2.85,2.85,0,0,0-2.06-.92c-1.82,0-3.13,1.53-3.13,4S136.64,12,138.49,12a3,3,0,0,0,2.35-1.11l1.09,1.21a4.46,4.46,0,0,1-3.47,1.61c-2.82,0-5.05-2-5.05-5.73S135.69,2.17,138.54,2.17Z"/><path class="cls-1" d="M143.54,2.57a1.21,1.21,0,1,1,1.21,1.11A1.12,1.12,0,0,1,143.54,2.57Zm.22,2.57h2v8.35h-2Z"/><path class="cls-1" d="M148.68,6.69h-1.19V5.23l1.29-.09L149,2.86h1.63V5.14h2.12V6.69h-2.12v4c0,1,.37,1.46,1.17,1.46a2.46,2.46,0,0,0,.87-.19l.34,1.45a5.45,5.45,0,0,1-1.7.3c-1.94,0-2.65-1.22-2.65-3Z"/><path class="cls-1" d="M155.8,15.34a1.74,1.74,0,0,0,1.66-1.43l.16-.52-3.28-8.25h2l1.45,4.1c.24.73.48,1.56.73,2.34h.07c.2-.76.42-1.59.63-2.34l1.26-4.1h1.88l-3,8.72c-.7,1.89-1.57,3.06-3.39,3.06a3.26,3.26,0,0,1-1.08-.17l.35-1.53A2.13,2.13,0,0,0,155.8,15.34Z"/><path class="cls-1" d="M163.43,8.49h4V9.92h-4Z"/><path class="cls-1" d="M171.73,4h-3.22V2.37h8.38V4H173.7v9.45h-2Z"/><path class="cls-1" d="M180.94,4.94a4,4,0,0,1,4,4.38,4,4,0,1,1-7.94,0A4,4,0,0,1,180.94,4.94Zm0,7.15c1.23,0,2-1.1,2-2.77s-.74-2.78-2-2.78S179,7.64,179,9.32,179.72,12.09,180.94,12.09Z"/><path class="cls-1" d="M186.09,5.14h2l1,4.34c.17.79.29,1.58.44,2.39h.07c.15-.81.32-1.61.52-2.39l1.09-4.34H193l1.1,4.34c.21.79.38,1.58.56,2.39h.07c.15-.81.29-1.6.44-2.39l1-4.34H198l-2.12,8.35h-2.33l-1-3.89c-.19-.79-.32-1.55-.51-2.44H192c-.15.89-.31,1.67-.49,2.45l-.95,3.88H188.3Z"/><path class="cls-1" d="M199.81,5.14h1.62l.13,1.12h.07a3.88,3.88,0,0,1,2.74-1.32c1.78,0,2.56,1.2,2.56,3.31v5.24h-2v-5c0-1.38-.39-1.89-1.31-1.89a2.63,2.63,0,0,0-1.9,1v5.83h-2Z"/><path class="cls-1" d="M209.59,11.28a3.67,3.67,0,0,0,2.31.93c.9,0,1.32-.42,1.32-1s-.9-1-1.78-1.34c-1.11-.41-2.35-1-2.35-2.43s1.18-2.5,3-2.5a4.5,4.5,0,0,1,2.77,1L214,7.13a3.16,3.16,0,0,0-1.84-.71c-.83,0-1.22.39-1.22.91s.83.92,1.73,1.25c1.14.42,2.4,1,2.4,2.53s-1.14,2.58-3.25,2.58a5.28,5.28,0,0,1-3.16-1.15Z"/><path class="cls-1" d="M217,1.49H219V4.58l-.06,1.61a3.8,3.8,0,0,1,2.66-1.25c1.79,0,2.57,1.2,2.57,3.31v5.24h-2v-5c0-1.38-.39-1.89-1.31-1.89a2.67,2.67,0,0,0-1.91,1v5.83H217Z"/><path class="cls-1" d="M226.43,2.57a1.21,1.21,0,1,1,1.21,1.11A1.12,1.12,0,0,1,226.43,2.57Zm.22,2.57h2v8.35h-2Z"/><path class="cls-1" d="M233.23,14.17v2.62h-1.95V5.14h1.61L233,6h.07a4.05,4.05,0,0,1,2.51-1.08c2.08,0,3.28,1.66,3.28,4.25,0,2.85-1.71,4.5-3.57,4.5a3.37,3.37,0,0,1-2.14-.92Zm1.69-2.09c1.1,0,2-1,2-2.88,0-1.66-.54-2.65-1.8-2.65a2.69,2.69,0,0,0-1.84.94v3.89A2.64,2.64,0,0,0,234.92,12.08Z"/><path class="cls-2" d="M44.12,17.94H47c2.35,0,3.74.77,3.74,2.94S49.34,24,47,24H44.86v4.53h-.74Zm2.69,5.39c2.16,0,3.18-.72,3.18-2.45s-1-2.32-3.18-2.32h-2v4.77Z"/><path class="cls-2" d="M52.79,20.8h.7v4.84c0,1.63.52,2.4,1.75,2.4.91,0,1.58-.48,2.48-1.57V20.8h.71v7.69h-.6l-.08-1.28h0a3.42,3.42,0,0,1-2.61,1.47c-1.58,0-2.32-1-2.32-2.95Z"/><path class="cls-2" d="M61.37,17h.7v3.33l0,1.5a4.41,4.41,0,0,1,2.66-1.2c2,0,3.07,1.54,3.07,3.92,0,2.61-1.59,4.15-3.4,4.15a4,4,0,0,1-2.3-.91h0l-.08.72h-.59Zm3,11.08c1.56,0,2.68-1.45,2.68-3.53,0-1.88-.68-3.29-2.44-3.29a4.06,4.06,0,0,0-2.51,1.26v4.56A3.72,3.72,0,0,0,64.34,28.06Z"/><path class="cls-2" d="M70.07,17h.7V27.56c0,.34.15.5.34.5a1,1,0,0,0,.29,0l.13.58a1.49,1.49,0,0,1-.52.08c-.62,0-.94-.38-.94-1.22Z"/><path class="cls-2" d="M73.59,18.32a.64.64,0,0,1,1.28,0,.64.64,0,0,1-1.28,0Zm.27,2.48h.71v7.69h-.71Z"/><path class="cls-2" d="M80.39,20.61a3.15,3.15,0,0,1,2.26.95l-.42.49a2.61,2.61,0,0,0-1.82-.81c-1.57,0-2.79,1.39-2.79,3.42s1.11,3.4,2.79,3.4a3.11,3.11,0,0,0,2-.88l.36.48a3.62,3.62,0,0,1-2.45,1c-2,0-3.48-1.47-3.48-4S78.52,20.61,80.39,20.61Z"/><path class="cls-2" d="M87.93,17.94h.73v9.91h4.85v.64H87.93Z"/><path class="cls-2" d="M95,18.32a.64.64,0,1,1,1.28,0,.64.64,0,0,1-1.28,0Zm.27,2.48H96v7.69h-.71Z"/><path class="cls-2" d="M107.62,20.8h.61l.06,1.43h0a2.63,2.63,0,0,1,2.18-1.62,1.69,1.69,0,0,1,.77.16l-.16.64a1.8,1.8,0,0,0-.71-.13c-.68,0-1.5.53-2.09,2v5.24h-.71Z"/><path class="cls-2" d="M117.25,23.67c0-1.17-.3-2.43-1.8-2.43a4.26,4.26,0,0,0-2.45.89l-.32-.52a5.07,5.07,0,0,1,2.85-1c1.82,0,2.43,1.32,2.43,3v4.92h-.59l-.08-1h0a4.56,4.56,0,0,1-2.72,1.18,2,2,0,0,1-2.24-2.11C112.29,24.87,113.85,24.05,117.25,23.67Zm-2.6,4.4a4,4,0,0,0,2.6-1.25V24.21c-3.15.37-4.22,1.11-4.22,2.32A1.44,1.44,0,0,0,114.65,28.07Z"/><path class="cls-2" d="M120.71,20.8h.61l.06,1.43h.05a2.62,2.62,0,0,1,2.18-1.62,1.65,1.65,0,0,1,.76.16l-.16.64a1.75,1.75,0,0,0-.7-.13c-.69,0-1.5.53-2.1,2v5.24h-.7Z"/><path class="cls-2" d="M126.71,31.34c.94,0,1.58-.87,2-2l.21-.67-3.16-7.83h.77l1.86,4.84c.24.64.54,1.47.83,2.14h.06c.24-.67.5-1.5.71-2.14l1.65-4.84h.72l-3.05,8.65c-.43,1.28-1.2,2.54-2.57,2.54a1.92,1.92,0,0,1-.79-.16l.16-.62A1.9,1.9,0,0,0,126.71,31.34Z"/><path class="cls-2" d="M102.25,20.61a4.41,4.41,0,0,0-2.66,1.2l0-1.5v-2.2h-.7V28.49h.59l.08-.72h0a4,4,0,0,0,2.31.91c1.81,0,3.39-1.54,3.39-4.15C105.32,22.15,104.3,20.61,102.25,20.61Zm-.35,7.45a3.72,3.72,0,0,1-2.28-1V22.5a4.06,4.06,0,0,1,2.51-1.26c1.77,0,2.44,1.41,2.44,3.29C104.57,26.61,103.45,28.06,101.9,28.06Z"/></g></g></svg>