<svg id="Layer_1" data-name="Layer 1" xmlns="http://www.w3.org/2000/svg" viewBox="0 0 32 32"><defs><style>.cls-1{fill:#fff;}</style></defs><title>logo_white</title><path class="cls-1" d="M32,3.53a1,1,0,0,0-.82-1s-.08,0-.18,0h0c-2.68.18-10.16,1.11-15,6-4.86-4.86-12.34-5.79-15-6H1a.32.32,0,0,0-.19,0,1,1,0,0,0-.81,1s0,0,0,0H0V25.32a1,1,0,0,0,.79,1,.47.47,0,0,0,.21.07c2.54.16,9.39,1,14.24,5.25a1,1,0,0,0,1.51.07A24.29,24.29,0,0,1,31,26.33h0a1,1,0,0,0,1-1V3.57h0S32,3.55,32,3.53ZM30,24.37A26.62,26.62,0,0,0,17,29V23.5h0a.5.5,0,0,0-.5-.5,0,0,0,0,0,0,0h-1a0,0,0,0,0,0,0,.5.5,0,0,0-.5.5s0,0,0,.05v5.32A27.85,27.85,0,0,0,2,24.42V4.64c3,.33,8.8,1.47,12.6,5.27l.42.42v5.12s0,0,0,.05a.5.5,0,0,0,.5.5h1a.5.5,0,0,0,.5-.5h0V10.33l.42-.42A17.3,17.3,0,0,1,24,6v6.57h0a.5.5,0,0,0,.5.5.48.48,0,0,0,.36-.17l0,0L26,11.76l1.2.68h0a.57.57,0,0,0,.28.11A.5.5,0,0,0,28,12v0h0V4.93c.74-.14,1.42-.23,2-.29Z"/><path class="cls-1" d="M21,.53h0s0,0,0,0A.49.49,0,0,0,20.67,0a.41.41,0,0,0-.19,0,.49.49,0,0,0-.31.13h0l-.05,0A13.43,13.43,0,0,0,16,6.39,13.56,13.56,0,0,0,11.89.22h0L11.81.14s0,0,0,0a.57.57,0,0,0-.13-.1.41.41,0,0,0-.19,0,.5.5,0,0,0-.5.5s0,0,0,0h0V2.16a23.24,23.24,0,0,1,5,5.05,22.25,22.25,0,0,1,5-5Z"/><path class="cls-1" d="M5.47.35A.5.5,0,0,0,5,.84V2.29a25.14,25.14,0,0,1,8.74,3.39A18.21,18.21,0,0,0,5.48.33S5.47.35,5.47.35Z"/><path class="cls-1" d="M27,.84a.49.49,0,0,0-.5-.49v0a18,18,0,0,0-8.16,5.35A24.72,24.72,0,0,1,27,2.29V.84Z"/></svg>